<svg version="1.1" id="Layer_1" xmlns="http://www.w3.org/2000/svg" xmlns:xlink="http://www.w3.org/1999/xlink" x="0px" y="0px"
	 width="100%" viewBox="0 0 492 430" enable-background="new 0 0 492 430" xml:space="preserve">
<path fill="#FFFFFF" opacity="1.000000" stroke="none" 
	d="
M286.000000,431.000000 
	C190.666672,431.000000 95.833336,431.000000 1.000000,431.000000 
	C1.000000,287.666656 1.000000,144.333328 1.000000,1.000000 
	C165.000000,1.000000 329.000000,1.000000 493.000000,1.000000 
	C493.000000,144.333328 493.000000,287.666656 493.000000,431.000000 
	C424.166656,431.000000 355.333344,431.000000 286.000000,431.000000 
M16.998272,101.500000 
	C16.998272,132.664413 17.050697,163.829056 16.913588,194.992874 
	C16.900515,197.964157 15.662233,200.922272 15.081497,203.903778 
	C14.916083,204.753006 14.906592,205.698959 15.097507,206.538727 
	C15.657781,209.003220 16.913073,211.435760 16.916859,213.882324 
	C17.018972,279.877228 16.998274,345.872314 16.998278,411.867371 
	C16.998278,413.792633 16.998278,415.717896 16.998278,417.705414 
	C171.991714,417.705414 326.232635,417.705414 480.606201,417.705414 
	C480.606201,292.048431 480.606201,166.688095 480.606201,41.313900 
	C325.969543,41.313900 171.728592,41.313900 16.998268,41.313900 
	C16.998268,61.250385 16.998268,80.875191 16.998272,101.500000 
z"/>
<path fill="#FFFA65" opacity="1.000000" stroke="none" 
	d="
M16.998270,101.000000 
	C16.998268,80.875191 16.998268,61.250385 16.998268,41.313900 
	C171.728592,41.313900 325.969543,41.313900 480.606201,41.313900 
	C480.606201,166.688095 480.606201,292.048431 480.606201,417.705414 
	C326.232635,417.705414 171.991714,417.705414 16.998278,417.705414 
	C16.998278,415.717896 16.998278,413.792633 16.998278,411.867371 
	C16.998274,345.872314 17.018972,279.877228 16.916859,213.882324 
	C16.913073,211.435760 15.657781,209.003220 15.097507,206.538727 
	C14.906592,205.698959 14.916083,204.753006 15.081497,203.903778 
	C15.662233,200.922272 16.900515,197.964157 16.913588,194.992874 
	C17.050697,163.829056 16.998272,132.664413 16.998270,101.000000 
M254.219208,252.334198 
	C254.507996,252.245361 254.796768,252.156540 255.733871,251.833450 
	C267.044067,244.884506 278.415833,238.031509 289.587524,230.866592 
	C291.003448,229.958496 292.073853,227.430206 292.110107,225.628525 
	C292.337830,214.301086 292.228149,202.966843 292.228729,191.634857 
	C292.229004,186.446289 293.177002,182.076645 298.377625,179.059753 
	C311.148285,171.651474 323.638885,163.759903 336.231201,156.044922 
	C346.135406,149.976883 355.898041,143.660568 366.004333,137.951614 
	C368.605072,136.482483 372.525360,135.986771 375.332458,136.798080 
	C376.821350,137.228409 377.919403,141.402191 377.994019,143.921616 
	C378.319519,154.910339 378.204926,165.912109 378.217834,177.329285 
	C378.502441,177.238556 378.787079,177.147827 379.717682,176.822968 
	C390.192596,170.423248 400.554688,163.825760 411.211487,157.744843 
	C414.392792,155.929535 415.038696,153.919937 415.025940,150.653732 
	C414.922394,124.163292 414.968140,97.672264 414.968414,71.181419 
	C414.968445,69.562454 414.968384,67.943481 414.968384,65.284119 
	C412.022400,66.255974 409.778656,66.662498 407.875824,67.696404 
	C404.383850,69.593765 401.117523,71.901642 397.714233,73.967712 
	C366.374084,92.993576 335.056366,112.056992 303.612701,130.910370 
	C301.317444,132.286575 297.586792,133.247147 295.452545,132.302322 
	C293.669495,131.512970 292.370453,127.650391 292.362213,125.143860 
	C292.293945,104.330948 292.584625,83.516968 292.744812,62.703140 
	C292.786591,57.274612 292.751099,51.845486 292.751099,46.489609 
	C287.543640,46.165222 93.393982,163.864120 87.203804,170.669647 
	C88.049095,171.447968 88.834915,172.308151 89.751213,172.994019 
	C98.505219,179.546692 107.409813,185.907532 115.979607,192.691742 
	C118.880653,194.988358 121.085373,194.947495 123.973083,193.172409 
	C148.419647,178.144836 172.909439,163.187622 197.370239,148.183182 
	C212.360397,138.988129 227.374771,129.830566 242.268936,120.482002 
	C247.526245,117.182167 254.832748,119.780388 254.276917,127.016937 
	C253.589920,135.960999 253.893646,145.005814 254.209320,153.991653 
	C254.363464,158.379379 252.807083,161.009750 249.134445,163.293015 
	C235.609192,171.701630 222.329041,180.504211 208.812775,188.927658 
	C193.750122,198.314865 178.551010,207.484070 163.368011,216.676697 
	C158.161835,219.828842 157.111588,225.348282 161.286453,228.698639 
	C167.733749,233.872620 174.175507,239.054077 180.668213,244.170685 
	C184.827194,247.448196 189.073532,250.614838 194.422623,254.704178 
	C193.073090,247.586807 195.010849,243.638138 199.957947,240.659592 
	C214.735901,231.762039 229.272354,222.462967 244.067978,213.595764 
	C246.069733,212.396088 249.427841,211.841858 251.390518,212.714569 
	C252.917542,213.393585 253.938202,216.739624 253.997849,218.932587 
	C254.296707,229.920151 254.204956,240.918335 254.219208,252.334198 
M412.038300,411.065399 
	C412.038300,358.491089 412.038300,305.916779 412.038300,252.683456 
	C410.227448,253.407730 409.128815,253.704865 408.172913,254.251572 
	C398.806549,259.608429 389.497284,265.065979 380.095581,270.359558 
	C377.027161,272.087189 375.869659,274.244354 375.901154,277.915222 
	C376.105438,301.743530 376.028198,325.574310 376.026123,349.404297 
	C376.025543,356.072327 375.094635,357.085754 368.647003,357.093201 
	C343.317200,357.122467 317.987305,357.118317 292.657562,357.069336 
	C291.037170,357.066223 289.098663,357.062988 287.847992,356.239716 
	C277.460968,349.402008 267.010773,342.630798 256.986206,335.284729 
	C252.263443,331.823883 253.063034,327.072693 258.116089,324.123810 
	C272.595581,315.673889 287.131989,307.321442 301.614044,298.875824 
	C326.557068,284.329620 351.451996,269.700653 376.412567,255.184601 
	C396.641632,243.420181 416.940613,231.776154 437.202393,220.067947 
	C449.105774,213.189606 460.997040,206.290192 473.298187,199.166031 
	C464.346100,183.716934 455.500854,168.452179 446.419800,152.780533 
	C425.653107,165.326233 405.348541,177.609695 385.027283,189.865479 
	C353.620117,208.807220 322.180969,227.696136 290.794647,246.672348 
	C268.357971,260.237610 246.004089,273.939758 223.565079,287.501068 
	C220.101364,289.594421 216.447311,290.136353 212.876083,287.342743 
	C189.786118,269.280487 166.745804,251.153580 143.546692,233.232346 
	C121.243797,216.003479 98.771263,198.994141 76.367805,181.895508 
	C68.499374,175.890244 60.614765,169.906174 52.405491,163.659760 
	C41.996407,177.558853 31.944557,190.980927 21.800920,204.525558 
	C34.721420,214.283066 46.924438,223.661774 59.298672,232.808868 
	C83.138741,250.431580 106.840004,268.256470 131.041382,285.371765 
	C153.382141,301.171234 176.273254,316.194611 198.984207,331.467255 
	C206.278595,336.372589 213.740448,341.032227 221.187302,345.706085 
	C224.393158,347.718140 226.340363,350.755524 224.618210,353.950104 
	C223.657104,355.732941 220.077042,356.964722 217.669373,356.977539 
	C182.341919,357.165680 147.013153,357.114166 111.684692,357.099579 
	C104.750160,357.096710 103.858383,356.227509 103.848335,349.345886 
	C103.819603,329.681946 103.682388,310.015900 103.944809,290.355438 
	C104.011261,285.377167 102.924484,281.984283 98.298828,279.475311 
	C94.723969,277.536316 91.798767,274.424988 88.496567,271.952606 
	C81.321457,266.580566 74.089981,261.283783 66.294487,255.522385 
	C66.294487,308.449982 66.294487,360.462402 66.294487,412.933380 
	C68.621948,412.933380 70.587883,412.933441 72.553825,412.933441 
	C170.540298,412.933350 268.526764,412.938599 366.513245,412.927246 
	C381.342743,412.925537 396.172211,412.846252 411.484802,412.788818 
	C411.822266,412.632050 411.973236,412.368408 412.038300,411.065399 
M289.033447,338.465698 
	C289.468903,333.789246 289.904388,329.112823 290.460541,323.140289 
	C285.062714,326.148438 281.035461,328.392792 276.164825,331.107147 
	C280.756927,333.797882 284.537720,336.013245 289.033447,338.465698 
z"/>
<path fill="#FFFFFF" opacity="1.000000" stroke="none" 
	d="
M411.001709,412.802856 
	C396.172211,412.846252 381.342743,412.925537 366.513245,412.927246 
	C268.526764,412.938599 170.540298,412.933350 72.553825,412.933441 
	C70.587883,412.933441 68.621948,412.933380 66.294487,412.933380 
	C66.294487,360.462402 66.294487,308.449982 66.294487,255.522385 
	C74.089981,261.283783 81.321457,266.580566 88.496567,271.952606 
	C91.798767,274.424988 94.723969,277.536316 98.298828,279.475311 
	C102.924484,281.984283 104.011261,285.377167 103.944809,290.355438 
	C103.682388,310.015900 103.819603,329.681946 103.848335,349.345886 
	C103.858383,356.227509 104.750160,357.096710 111.684692,357.099579 
	C147.013153,357.114166 182.341919,357.165680 217.669373,356.977539 
	C220.077042,356.964722 223.657104,355.732941 224.618210,353.950104 
	C226.340363,350.755524 224.393158,347.718140 221.187302,345.706085 
	C213.740448,341.032227 206.278595,336.372589 198.984207,331.467255 
	C176.273254,316.194611 153.382141,301.171234 131.041382,285.371765 
	C106.840004,268.256470 83.138741,250.431580 59.298672,232.808868 
	C46.924438,223.661774 34.721420,214.283066 21.800920,204.525558 
	C31.944557,190.980927 41.996407,177.558853 52.405491,163.659760 
	C60.614765,169.906174 68.499374,175.890244 76.367805,181.895508 
	C98.771263,198.994141 121.243797,216.003479 143.546692,233.232346 
	C166.745804,251.153580 189.786118,269.280487 212.876083,287.342743 
	C216.447311,290.136353 220.101364,289.594421 223.565079,287.501068 
	C246.004089,273.939758 268.357971,260.237610 290.794647,246.672348 
	C322.180969,227.696136 353.620117,208.807220 385.027283,189.865479 
	C405.348541,177.609695 425.653107,165.326233 446.419800,152.780533 
	C455.500854,168.452179 464.346100,183.716934 473.298187,199.166031 
	C460.997040,206.290192 449.105774,213.189606 437.202393,220.067947 
	C416.940613,231.776154 396.641632,243.420181 376.412567,255.184601 
	C351.451996,269.700653 326.557068,284.329620 301.614044,298.875824 
	C287.131989,307.321442 272.595581,315.673889 258.116089,324.123810 
	C253.063034,327.072693 252.263443,331.823883 256.986206,335.284729 
	C267.010773,342.630798 277.460968,349.402008 287.847992,356.239716 
	C289.098663,357.062988 291.037170,357.066223 292.657562,357.069336 
	C317.987305,357.118317 343.317200,357.122467 368.647003,357.093201 
	C375.094635,357.085754 376.025543,356.072327 376.026123,349.404297 
	C376.028198,325.574310 376.105438,301.743530 375.901154,277.915222 
	C375.869659,274.244354 377.027161,272.087189 380.095581,270.359558 
	C389.497284,265.065979 398.806549,259.608429 408.172913,254.251572 
	C409.128815,253.704865 410.227448,253.407730 412.038300,252.683456 
	C412.038300,305.916779 412.038300,358.491089 411.795837,411.619812 
	C411.308868,412.330566 411.125000,412.540131 411.001709,412.802856 
z"/>
<path fill="#FFFFFF" opacity="1.000000" stroke="none" 
	d="
M378.250153,176.909134 
	C378.204926,165.912109 378.319519,154.910339 377.994019,143.921616 
	C377.919403,141.402191 376.821350,137.228409 375.332458,136.798080 
	C372.525360,135.986771 368.605072,136.482483 366.004333,137.951614 
	C355.898041,143.660568 346.135406,149.976883 336.231201,156.044922 
	C323.638885,163.759903 311.148285,171.651474 298.377625,179.059753 
	C293.177002,182.076645 292.229004,186.446289 292.228729,191.634857 
	C292.228149,202.966843 292.337830,214.301086 292.110107,225.628525 
	C292.073853,227.430206 291.003448,229.958496 289.587524,230.866592 
	C278.415833,238.031509 267.044067,244.884506 255.202286,251.903168 
	C254.670700,251.972870 254.250504,251.912796 254.250504,251.912796 
	C254.204956,240.918335 254.296707,229.920151 253.997849,218.932587 
	C253.938202,216.739624 252.917542,213.393585 251.390518,212.714569 
	C249.427841,211.841858 246.069733,212.396088 244.067978,213.595764 
	C229.272354,222.462967 214.735901,231.762039 199.957947,240.659592 
	C195.010849,243.638138 193.073090,247.586807 194.422623,254.704178 
	C189.073532,250.614838 184.827194,247.448196 180.668213,244.170685 
	C174.175507,239.054077 167.733749,233.872620 161.286453,228.698639 
	C157.111588,225.348282 158.161835,219.828842 163.368011,216.676697 
	C178.551010,207.484070 193.750122,198.314865 208.812775,188.927658 
	C222.329041,180.504211 235.609192,171.701630 249.134445,163.293015 
	C252.807083,161.009750 254.363464,158.379379 254.209320,153.991653 
	C253.893646,145.005814 253.589920,135.960999 254.276917,127.016937 
	C254.832748,119.780388 247.526245,117.182167 242.268936,120.482002 
	C227.374771,129.830566 212.360397,138.988129 197.370239,148.183182 
	C172.909439,163.187622 148.419647,178.144836 123.973083,193.172409 
	C121.085373,194.947495 118.880653,194.988358 115.979607,192.691742 
	C107.409813,185.907532 98.505219,179.546692 89.751213,172.994019 
	C88.834915,172.308151 88.049095,171.447968 87.203804,170.669647 
	C93.393982,163.864120 287.543640,46.165222 292.751099,46.489609 
	C292.751099,51.845486 292.786591,57.274612 292.744812,62.703140 
	C292.584625,83.516968 292.293945,104.330948 292.362213,125.143860 
	C292.370453,127.650391 293.669495,131.512970 295.452545,132.302322 
	C297.586792,133.247147 301.317444,132.286575 303.612701,130.910370 
	C335.056366,112.056992 366.374084,92.993576 397.714233,73.967712 
	C401.117523,71.901642 404.383850,69.593765 407.875824,67.696404 
	C409.778656,66.662498 412.022400,66.255974 414.968384,65.284119 
	C414.968384,67.943481 414.968445,69.562454 414.968414,71.181419 
	C414.968140,97.672264 414.922394,124.163292 415.025940,150.653732 
	C415.038696,153.919937 414.392792,155.929535 411.211487,157.744843 
	C400.554688,163.825760 390.192596,170.423248 379.190491,176.895004 
	C378.663330,176.967041 378.250153,176.909134 378.250153,176.909134 
z"/>
<path fill="#FFFFFE" opacity="1.000000" stroke="none" 
	d="
M288.675964,338.347168 
	C284.537720,336.013245 280.756927,333.797882 276.164825,331.107147 
	C281.035461,328.392792 285.062714,326.148438 290.460541,323.140289 
	C289.904388,329.112823 289.468903,333.789246 288.675964,338.347168 
z"/>
<path fill="#FFFED3" opacity="1.000000" stroke="none" 
	d="
M378.234009,177.119202 
	C378.250153,176.909134 378.663330,176.967041 378.867493,177.012070 
	C378.787079,177.147827 378.502441,177.238556 378.234009,177.119202 
z"/>
<path fill="#FFFED5" opacity="1.000000" stroke="none" 
	d="
M254.234863,252.123505 
	C254.250504,251.912796 254.670700,251.972870 254.878128,252.020294 
	C254.796768,252.156540 254.507996,252.245361 254.234863,252.123505 
z"/>
<path fill="#FFFEE5" opacity="1.000000" stroke="none" 
	d="
M411.243256,412.795837 
	C411.125000,412.540131 411.308868,412.330566 411.745544,412.086060 
	C411.973236,412.368408 411.822266,412.632050 411.243256,412.795837 
z"/>
</svg>